<svg width="18" height="24" viewBox="0 0 18 24" fill="none" xmlns="http://www.w3.org/2000/svg">
<g clip-path="url(#clip0_2_180)">
<g clip-path="url(#clip1_2_180)">
<path d="M4.5 4.5V12C4.5 14.4844 6.51562 16.5 9 16.5C11.4844 16.5 13.5 14.4844 13.5 12H9.75C9.3375 12 9 11.6625 9 11.25C9 10.8375 9.3375 10.5 9.75 10.5H13.5V9H9.75C9.3375 9 9 8.6625 9 8.25C9 7.8375 9.3375 7.5 9.75 7.5H13.5V6H9.75C9.3375 6 9 5.6625 9 5.25C9 4.8375 9.3375 4.5 9.75 4.5H13.5C13.5 2.01562 11.4844 0 9 0C6.51562 0 4.5 2.01562 4.5 4.5ZM15 11.25V12C15 15.3141 12.3141 18 9 18C5.68594 18 3 15.3141 3 12V10.125C3 9.50156 2.49844 9 1.875 9C1.25156 9 0.75 9.50156 0.75 10.125V12C0.75 16.1766 3.85312 19.6266 7.875 20.175V21.75H5.625C5.00156 21.75 4.5 22.2516 4.5 22.875C4.5 23.4984 5.00156 24 5.625 24H9H12.375C12.9984 24 13.5 23.4984 13.5 22.875C13.5 22.2516 12.9984 21.75 12.375 21.75H10.125V20.175C14.1469 19.6266 17.25 16.1766 17.25 12V10.125C17.25 9.50156 16.7484 9 16.125 9C15.5016 9 15 9.50156 15 10.125V11.25Z" fill="#035BF1"/>
</g>
</g>
<defs>
<clipPath id="clip0_2_180">
<rect width="18" height="24" fill="white"/>
</clipPath>
<clipPath id="clip1_2_180">
<path d="M0 0H18V24H0V0Z" fill="white"/>
</clipPath>
</defs>
</svg>
